<svg xmlns="http://www.w3.org/2000/svg" xmlns:xlink="http://www.w3.org/1999/xlink" width="110px" height="110px" viewBox="-5 -5 110 110">
<path class="cake" fill="#583702" d="M84.907,57.924c-2.915,0-5.288,2.378-5.288,5.298c0,6.748-5.488,12.241-12.251,12.241c-6.743,0-12.231-5.493-12.231-12.241  c0-2.92-2.383-5.298-5.298-5.298c-2.92,0-5.298,2.378-5.298,5.298c0,6.748-5.498,12.241-12.241,12.241  c-6.759,0-12.247-5.493-12.247-12.241c0-2.92-2.383-5.298-5.298-5.298c-2.583,0-4.653,1.909-5.107,4.38  c2.446,13.066,8.193,28.867,12.979,33.662c5.513,5.513,49.239,5.244,54.493,0c4.624-4.624,10.464-21.157,12.823-34.063  C89.341,59.638,87.363,57.924,84.907,57.924z"/>
<path class="cream"  fill="#FCFAF2" stroke="#F7E9AA" stroke-width="3" d="M6.215,54.472c2.212-2.159,5.215-3.498,8.54-3.498c6.743,0,12.241,5.49,12.241,12.248c0,2.915,2.379,5.293,5.304,5.293  c2.915,0,5.293-2.378,5.293-5.293c0-6.758,5.493-12.248,12.246-12.248c6.748,0,12.236,5.49,12.236,12.248  c0,2.915,2.378,5.293,5.293,5.293c2.93,0,5.303-2.378,5.303-5.293c0-6.758,5.498-12.248,12.236-12.248  c3.398,0,6.485,1.397,8.702,3.644c3.252-3.028,5.342-7.267,5.342-12.069c0-8.923-7.026-16.146-15.841-16.592  c-1.147-8.086-8.027-14.326-16.436-14.326c-0.283,0-0.552,0.068-0.835,0.083C63.721,4.944,57.471,0,50,0  c-7.549,0-13.853,5.049-15.908,11.934c-0.986-0.178-1.987-0.303-3.022-0.303c-8.482,0-15.411,6.36-16.461,14.558  c-7.72,1.46-13.56,8.216-13.56,16.36C1.049,47.264,3.065,51.449,6.215,54.472z"/>
</svg>